# xmcd CD database file
#
# Track frame offsets:
#	150
#	22468
#	41394
#	59166
#	77606
#	95792
#
# Disc length: 1445 seconds
#
# Revision: 0
# Processed by: cddbd v1.5.2PL0 Copyright (c) Steve Scherf et al.
# Submitted via: CDex 1.70beta2
#
DISCID=5105a306
DTITLE=Chuck Beattie - Tony Kiss Mix
DYEAR=2009
DGENRE=Blues
TTITLE0=The Thrill Is Gone(reprise)
TTITLE1=She Caught The Katy
TTITLE2=Hey Bartender
TTITLE3=Crow Jane
TTITLE4=I'm Ready
TTITLE5=Messin' With The Kid
EXTD=YEAR: 2009
EXTT0=
EXTT1=
EXTT2=
EXTT3=
EXTT4=
EXTT5=
PLAYORDER=
